<svg xmlns="http://www.w3.org/2000/svg" viewBox="0 0 200 200" width="24" height="24">
  <path fill="#fff" d="M152.637 200H47.363C21.209 200 0 178.791 0 152.637V47.363C0 21.209 21.209 0 47.363 0h105.273C178.791 0 200 21.209 200 47.363v105.273C200 178.791 178.791 200 152.637 200z"/>
  <path fill="#1a73e8" d="M152.637 200H47.363C21.209 200 0 178.791 0 152.637V47.363C0 21.209 21.209 0 47.363 0h105.273C178.791 0 200 21.209 200 47.363v105.273C200 178.791 178.791 200 152.637 200z"/>
  <path fill="#fff" d="M152.637 193.932H47.363c-22.756 0-41.295-18.539-41.295-41.295V47.363c0-22.756 18.539-41.295 41.295-41.295h105.273c22.756 0 41.295 18.539 41.295 41.295v105.273c.001 22.757-18.538 41.296-41.294 41.296z"/>
  <path fill="#1a73e8" d="M67.895 87.4h19.382v-6.471c0-2.835 2.298-5.133 5.133-5.133 2.835 0 5.133 2.298 5.133 5.133V87.4h5.133v-6.471c0-2.835 2.298-5.133 5.133-5.133 2.835 0 5.133 2.298 5.133 5.133V87.4h19.382"/>
  <rect fill="#1a73e8" x="57.661" y="87.4" width="84.678" height="60.538" rx="6"/>
  <path fill="#fff" d="M78.887 119.316h-6.47c-1.834 0-3.324-1.49-3.324-3.324v-6.47c0-1.834 1.49-3.324 3.324-3.324h6.47c1.834 0 3.324 1.49 3.324 3.324v6.47c0 1.835-1.49 3.324-3.324 3.324zM103.262 119.316h-6.471c-1.834 0-3.323-1.49-3.323-3.324v-6.47c0-1.834 1.49-3.324 3.323-3.324h6.471c1.834 0 3.323 1.49 3.323 3.324v6.47c0 1.835-1.49 3.324-3.323 3.324zM127.636 119.316h-6.47c-1.834 0-3.324-1.49-3.324-3.324v-6.47c0-1.834 1.49-3.324 3.324-3.324h6.47c1.834 0 3.324 1.49 3.324 3.324v6.47c0 1.835-1.49 3.324-3.324 3.324zM78.887 140.692h-6.47c-1.834 0-3.324-1.49-3.324-3.324v-6.471c0-1.834 1.49-3.323 3.324-3.323h6.47c1.834 0 3.324 1.49 3.324 3.323v6.471c0 1.834-1.49 3.324-3.324 3.324zM103.262 140.692h-6.471c-1.834 0-3.323-1.49-3.323-3.324v-6.471c0-1.834 1.49-3.323 3.323-3.323h6.471c1.834 0 3.323 1.49 3.323 3.323v6.471c0 1.834-1.49 3.324-3.323 3.324z"/>
</svg>
