<svg width="36" height="28" viewBox="0 0 36 28" fill="none" xmlns="http://www.w3.org/2000/svg">
<g clip-path="url(#clip0_1504_29808)">
<path d="M23.0678 0.398438C22.716 1.01643 22.4001 1.65574 22.113 2.30925C19.3848 1.90436 16.6063 1.90436 13.8709 2.30925C13.5909 1.65574 13.2678 1.01643 12.9161 0.398438C10.353 0.831759 7.85454 1.59181 5.48534 2.66441C0.789965 9.54761 -0.480797 16.2532 0.151002 22.8665C2.90072 24.8767 5.98072 26.4111 9.26172 27.3913C10.0012 26.4111 10.6545 25.3669 11.2145 24.2801C10.152 23.8894 9.12531 23.3992 8.14173 22.831C8.40018 22.6463 8.65147 22.4545 8.89557 22.2698C14.6607 24.9549 21.3376 24.9549 27.1098 22.2698C27.3539 22.4687 27.6052 22.6605 27.8637 22.831C26.8801 23.4063 25.8534 23.8894 24.7837 24.2872C25.3437 25.374 25.997 26.4182 26.7365 27.3984C30.0174 26.4182 33.0974 24.8909 35.8474 22.8807C36.5938 15.209 34.5693 8.56023 30.4984 2.67153C28.1365 1.59892 25.6381 0.838847 23.075 0.412641L23.0678 0.398438ZM12.0186 18.7962C10.2453 18.7962 8.77353 17.2051 8.77353 15.2374C8.77353 13.2698 10.1879 11.6715 12.0115 11.6715C13.8351 11.6715 15.2853 13.2769 15.2566 15.2374C15.2279 17.198 13.8279 18.7962 12.0186 18.7962ZM23.9796 18.7962C22.1991 18.7962 20.7417 17.2051 20.7417 15.2374C20.7417 13.2698 22.156 11.6715 23.9796 11.6715C25.8032 11.6715 27.2463 13.2769 27.2175 15.2374C27.1888 17.198 25.7888 18.7962 23.9796 18.7962Z" fill="#5865F2"/>
</g>
<defs>
<clipPath id="clip0_1504_29808">
<rect width="36" height="27" fill="white" transform="translate(0 0.398438)"/>
</clipPath>
</defs>
</svg>
