<svg xmlns="http://www.w3.org/2000/svg" viewBox="0 0 24 24" width="24" height="24" fill="none">
  <path d="M2 6.5V18a1 1 0 001 1h2V7.5L12 13l7-5.5V19h2a1 1 0 001-1V6.5l-1.5-2L12 11 3.5 4.5 2 6.5z" fill="#EA4335"/>
  <path d="M5 19V7.5l7 5.5 7-5.5V19" fill="none" stroke="#EA4335" stroke-width="0"/>
  <path d="M2 6.5l10 7.5 10-7.5" fill="none"/>
  <rect x="2" y="5" width="3" height="14" rx="0" fill="#4285F4"/>
  <rect x="19" y="5" width="3" height="14" rx="0" fill="#34A853"/>
  <path d="M2 6.5l10 8 10-8v-1L12 12 2 5.5v1z" fill="#FBBC05"/>
  <path d="M5 7.5L12 13l7-5.5V5L12 11 5 5v2.5z" fill="#EA4335"/>
</svg>