<svg xmlns="http://www.w3.org/2000/svg" viewBox="0 0 87.3 78" width="24" height="22">
  <path d="m6.6 66.85 3.85 6.65c.8 1.4 1.95 2.5 3.3 3.3l13.75-23.8H0c0 1.55.4 3.1 1.2 4.5l5.4 9.35z" fill="#0066da"/>
  <path d="m43.65 25-13.75-23.8c-1.35.8-2.5 1.9-3.3 3.3l-25.4 44a9.06 9.06 0 0 0-1.2 4.5h27.5l16.15-28z" fill="#00ac47"/>
  <path d="M73.55 76.8c1.35-.8 2.5-1.9 3.3-3.3l1.6-2.75 7.65-13.25c.8-1.4 1.2-2.95 1.2-4.5H59.85L53 63.05l-3.3 5.75 10.1 17.5 13.75-9.5z" fill="#ea4335"/>
  <path d="M43.65 25 57.4 1.2C56.05.4 54.5 0 52.9 0H34.4c-1.6 0-3.15.45-4.5 1.2L43.65 25z" fill="#00832d"/>
  <path d="M59.8 53H27.5L13.75 76.8c1.35.8 2.9 1.2 4.5 1.2H69c1.6 0 3.15-.45 4.55-1.2L59.8 53z" fill="#2684fc"/>
  <path d="M73.4 26.5 60.6 4.5c-.8-1.4-1.95-2.5-3.3-3.3L43.55 25l16.25 28h27.45c0-1.55-.4-3.1-1.2-4.5l-12.65-22z" fill="#ffba00"/>
</svg>
