<svg width="32" height="33" viewBox="0 0 32 33" fill="none" xmlns="http://www.w3.org/2000/svg">
<path d="M0.392131 20.5857C0.320931 20.2822 0.682525 20.091 0.902973 20.3115L12.5869 31.9954C12.8074 32.2159 12.6162 32.5775 12.3127 32.5063C6.41648 31.1231 1.77529 26.4819 0.392131 20.5857ZM0.000605231 15.9029C-0.00504077 15.9936 0.0290443 16.0821 0.0932682 16.1463L16.7521 32.8051C16.8163 32.8694 16.9048 32.9035 16.9955 32.8978C17.7536 32.8506 18.4975 32.7506 19.2235 32.6015C19.4681 32.5513 19.5531 32.2507 19.3765 32.0741L0.824304 13.522C0.647709 13.3453 0.34713 13.4303 0.296888 13.675C0.147796 14.4009 0.0478259 15.1448 0.000605231 15.9029ZM1.3475 10.4042C1.29422 10.5238 1.32136 10.6636 1.41395 10.7562L22.1423 31.4845C22.2349 31.5771 22.3747 31.6042 22.4943 31.5509C23.0658 31.2963 23.6197 31.0093 24.1536 30.6921C24.3303 30.5871 24.3576 30.3443 24.2123 30.199L2.69941 8.68618C2.5541 8.54087 2.31134 8.56813 2.20637 8.7448C1.88915 9.27869 1.60208 9.83261 1.3475 10.4042ZM4.05078 6.68212C3.93235 6.56368 3.92502 6.37373 4.03661 6.2488C6.96944 2.96542 11.2356 0.898438 15.9846 0.898438C24.8297 0.898438 32 8.06877 32 16.9138C32 21.6628 29.933 25.929 26.6496 28.8618C26.5247 28.9734 26.3348 28.9661 26.2163 28.8476L4.05078 6.68212Z" fill="#222326"/>
</svg>
