<svg xmlns="http://www.w3.org/2000/svg" viewBox="12 0.18999999999999906 100 100" width="24" height="24">
  <path d="M25.96 18.11l46.56-3.43c5.73-.49 7.18-.16 10.76 2.4l14.82 10.44c2.44 1.78 3.26 2.27 3.26 4.23v59.63c0 3.74-1.38 5.93-6.15 6.26l-54.1 3.26c-3.58.17-5.3-.33-7.18-2.77l-11.4-14.82c-2.11-2.77-2.93-4.88-2.93-7.33V23.82c0-3.1 1.38-5.38 6.36-5.71z" fill="#fff"/>
  <path fill-rule="evenodd" clip-rule="evenodd" d="M72.52 14.68L25.96 18.11c-4.98.33-6.36 2.61-6.36 5.71v53.38c0 2.45.82 4.56 2.93 7.33l11.4 14.82c1.88 2.44 3.6 2.94 7.18 2.77l54.1-3.26c4.77-.33 6.15-2.52 6.15-6.26V31.97c0-1.83-.63-2.39-2.71-3.91l-.55-.42-14.82-10.44c-3.58-2.56-5.03-2.89-10.76-2.4zM40.13 30.98c-4.63.29-5.68.36-8.33-1.6l-8.82-6.68c-.73-.65-.33-1.46 1.22-1.62l44.81-3.26c3.74-.33 5.62 1.14 7.01 2.12l10.27 7.33c.49.33.16.81-1.06.98l-46.41 2.77-.69-.04zM35.68 94.95V39.66c0-2.11.65-3.1 2.6-3.26l50.06-2.94c1.79-.16 2.6 1.14 2.6 3.1v54.96c0 2.11-1.14 4.56-4.23 4.72l-45.78 2.77c-3.42.16-5.25-1.14-5.25-4.06zM82.78 42.6c.33 1.46 0 2.93-1.46 3.1l-2.28.49v40.62c-1.95 1.06-3.74 1.62-5.54 1.62-2.56 0-3.26-.82-5.2-3.1l-15.96-25.08v24.26l4.72 1.06s0 2.93-4.06 2.93l-11.24.65c-.33-.65 0-2.27 1.14-2.6l2.93-.81V49.13l-4.06-.33c-.33-1.46.49-3.58 2.77-3.74l12.06-.82 16.61 25.41V47.33l-3.91-.49c-.33-1.79 1.06-3.1 2.77-3.26l11.71-1z" fill="#000"/>
</svg>
