<svg width="30" height="30" viewBox="0 0 30 30" fill="none" xmlns="http://www.w3.org/2000/svg">
<path fill-rule="evenodd" clip-rule="evenodd" d="M10.9993 0C9.34099 0.00122324 7.99886 1.34434 8.00008 2.99939C7.99886 4.65443 9.34221 5.99755 11.0006 5.99878H14.0011V3.00061C14.0023 1.34557 12.6589 0.00244648 10.9993 0C11.0006 0 11.0006 0 10.9993 0V0ZM10.9993 8H3.00049C1.34213 8.00122 -0.00122234 9.34434 3.34966e-06 10.9994C-0.00244803 12.6544 1.34091 13.9976 2.99927 14H10.9993C12.6577 13.9988 14.0011 12.6557 13.9998 11.0006C14.0011 9.34434 12.6577 8.00122 10.9993 8V8Z" fill="#36C5F0"/>
<path fill-rule="evenodd" clip-rule="evenodd" d="M29.9991 10.9994C30.0003 9.34434 28.6569 8.00122 26.9985 8C25.3401 8.00122 23.9968 9.34434 23.998 10.9994V14H26.9985C28.6569 13.9988 30.0003 12.6557 29.9991 10.9994ZM21.9989 10.9994V2.99939C22.0001 1.34557 20.6579 0.00244648 18.9996 0C17.3412 0.00122324 15.9978 1.34434 15.999 2.99939V10.9994C15.9966 12.6544 17.34 13.9976 18.9983 14C20.6567 13.9988 22.0001 12.6557 21.9989 10.9994Z" fill="#2EB67D"/>
<path fill-rule="evenodd" clip-rule="evenodd" d="M18.9996 29.9998C20.6579 29.9985 22.0013 28.6554 22.0001 27.0004C22.0013 25.3453 20.6579 24.0022 18.9996 24.001H15.999V27.0004C15.9978 28.6542 17.3412 29.9973 18.9996 29.9998ZM18.9996 21.9985H26.9998C28.6581 21.9973 30.0015 20.6542 30.0003 18.9991C30.0027 17.3441 28.6594 16.001 27.001 15.9985H19.0008C17.3424 15.9998 15.999 17.3429 16.0002 18.9979C15.999 20.6542 17.3412 21.9973 18.9996 21.9985V21.9985Z" fill="#ECB22E"/>
<path fill-rule="evenodd" clip-rule="evenodd" d="M8.38087e-07 18.9992C-0.00122486 20.6543 1.34214 21.9974 3.00051 21.9986C4.65888 21.9974 6.00225 20.6543 6.00102 18.9992V15.9998H3.00051C1.34214 16.001 -0.00122486 17.3441 8.38087e-07 18.9992ZM8.00014 18.9992V26.9993C7.99769 28.6544 9.34105 29.9975 10.9994 30C12.6578 29.9987 14.0012 28.6556 13.9999 27.0005V19.0016C14.0024 17.3466 12.659 16.0034 11.0007 16.001C9.34105 16.001 7.99891 17.3441 8.00014 18.9992C8.00014 19.0004 8.00014 18.9992 8.00014 18.9992Z" fill="#E01E5A"/>
</svg>
